<svg xmlns="http://www.w3.org/2000/svg" viewBox="0 0 800 533">
  <defs>
    <linearGradient id="wood" x1="0" y1="0" x2="0" y2="1">
      <stop offset="0" stop-color="#2e2318"/>
      <stop offset="0.5" stop-color="#261c13"/>
      <stop offset="1" stop-color="#1d150e"/>
    </linearGradient>
    <radialGradient id="warm" cx="0.38" cy="0.3" r="0.8">
      <stop offset="0" stop-color="#e8b45a" stop-opacity="0.13"/>
      <stop offset="1" stop-color="#e8b45a" stop-opacity="0"/>
    </radialGradient>
    <radialGradient id="vig" cx="0.45" cy="0.45" r="0.75">
      <stop offset="0.4" stop-color="#000000" stop-opacity="0"/>
      <stop offset="1" stop-color="#000000" stop-opacity="0.62"/>
    </radialGradient>
    <filter id="grain" x="0" y="0" width="100%" height="100%">
      <feTurbulence type="fractalNoise" baseFrequency="0.85" numOctaves="2" stitchTiles="stitch"/>
      <feColorMatrix type="saturate" values="0"/>
    </filter>
    <filter id="soft" x="-30%" y="-30%" width="160%" height="160%">
      <feGaussianBlur stdDeviation="8"/>
    </filter>
    <filter id="shadow" x="-20%" y="-20%" width="140%" height="140%">
      <feGaussianBlur stdDeviation="7"/>
    </filter>
  </defs>
  <rect width="800" height="533" fill="url(#wood)"/>
  <g stroke="#1a120b" opacity="0.55">
    <path d="M0 120 H800" stroke-width="3"/>
    <path d="M0 330 H800" stroke-width="3"/>
  </g>
  <g stroke="#3a2c1e" fill="none" opacity="0.4" stroke-width="1.5">
    <path d="M40 40 q120 12 220 4 M420 60 q160 8 300 -2"/>
    <path d="M60 180 q140 10 260 2 M500 210 q120 8 240 0"/>
    <path d="M30 390 q160 12 300 4 M480 420 q140 8 280 -2"/>
    <path d="M100 480 q180 10 340 2"/>
  </g>
  <g filter="url(#soft)">
    <rect x="-30" y="-20" width="150" height="190" rx="8" fill="#171019" opacity="0.85" transform="rotate(-8 45 75)"/>
    <rect x="-16" y="-6" width="120" height="160" fill="#3a3226" opacity="0.5" transform="rotate(-8 45 75)"/>
    <path d="M660 430 q90 -30 170 10 l0 120 l-210 0 q-10 -70 40 -130 z" fill="#2a1a22" opacity="0.9"/>
    <path d="M700 470 q60 -18 120 6" fill="none" stroke="#3d2a33" stroke-width="14" opacity="0.8"/>
  </g>
  <rect x="160" y="86" width="510" height="400" fill="#0d0906" opacity="0.55" filter="url(#shadow)" transform="rotate(-2.5 405 278)"/>
  <g transform="rotate(-2.5 405 278)">
    <path d="M150 84 l36 -9 l36 9 l36 -9 l36 9 l36 -9 l36 9 l36 -9 l36 9 l36 -9 l36 9 l36 -9 l36 9 l10 -4 L660 466 L150 466 z" fill="#e9e2d2"/>
    <path d="M150 84 l36 -9 l36 9 l36 -9 l36 9 l36 -9 l36 9 l36 -9 l36 9 l36 -9 l36 9 l36 -9 l36 9 l10 -4" fill="none" stroke="#cfc6b2" stroke-width="2"/>
    <g stroke="#9db0cc" stroke-width="1.5" opacity="0.45">
      <path d="M158 160 H652"/>
      <path d="M158 206 H652"/>
      <path d="M158 252 H652"/>
      <path d="M158 298 H652"/>
      <path d="M158 344 H652"/>
      <path d="M158 390 H652"/>
      <path d="M158 436 H652"/>
    </g>
    <path d="M214 92 V458" stroke="#c98a8a" stroke-width="1.8" opacity="0.45"/>
    <g font-family="cursive" fill="#2c3a58" opacity="0.92">
      <text x="238" y="248" font-size="46" fill="#2c3a58" transform="rotate(-1 238 248)">如果我联系不上，</text>
      <text x="252" y="340" font-size="46" fill="#2c3a58" transform="rotate(0.6 252 340)">把电脑交给知秋。</text>
    </g>
    <path d="M600 404 q22 -6 34 4" fill="none" stroke="#2c3a58" stroke-width="3" opacity="0.5"/>
    <rect x="150" y="84" width="510" height="382" fill="url(#warm)" opacity="0.5"/>
  </g>
  <rect width="800" height="533" fill="url(#warm)"/>
  <rect width="800" height="533" fill="url(#vig)"/>
  <rect width="800" height="533" filter="url(#grain)" opacity="0.1"/>
</svg>
